<svg id="Groupe_597" data-name="Groupe 597" xmlns="http://www.w3.org/2000/svg" width="39.777" height="31.906" viewBox="0 0 39.777 31.906">
  <g id="Groupe_223" data-name="Groupe 223" transform="translate(0 0)">
    <path id="Tracé_70" data-name="Tracé 70" d="M206.079,256.729a11.282,11.282,0,0,1-18.409-8.754c0-6.227,7.851-20.615,11.28-20.615,1.835,0,4.612,3.519,6.949,7.821v20.706A2.149,2.149,0,0,0,206.079,256.729Z" transform="translate(-187.67 -227.36)" fill="#fa3535"/>
    <path id="Tracé_71" data-name="Tracé 71" d="M191.359,241.43a35.89,35.89,0,0,1,5.46-9.528l-.753-.663a36.842,36.842,0,0,0-5.64,9.823l.934.367Z" transform="translate(-187.663 -227.35)" fill="#fff"/>
    <path id="Tracé_72" data-name="Tracé 72" d="M226.209,245.887a6.155,6.155,0,0,0-3.219-2.136,5.324,5.324,0,0,0,2.547-2.266,6.281,6.281,0,0,0,.852-3.189,6.6,6.6,0,0,0-1.464-4.151,5.526,5.526,0,0,0-1.695-1.374A4.639,4.639,0,0,0,221,232.23H207.85v23.644h11.511a12.372,12.372,0,0,0,3.1-.381,8.454,8.454,0,0,0,2.567-1.133,5.564,5.564,0,0,0,1.735-1.885,5.382,5.382,0,0,0,.632-2.667A6.268,6.268,0,0,0,226.209,245.887Zm-12.9-8.994h5.565a1.972,1.972,0,0,1,1.474.632,2.48,2.48,0,0,1,.622,1.8,2.314,2.314,0,0,1-.7,1.865,2.4,2.4,0,0,1-1.594.592H213.3Zm7.821,13.657a2.4,2.4,0,0,1-1.765.692H213.3v-5.154h6.3a1.974,1.974,0,0,1,1.594.762,2.838,2.838,0,0,1,.632,1.865A2.479,2.479,0,0,1,221.126,250.549Z" transform="translate(-187.616 -227.347)" fill="#046489"/>
  </g>
</svg>
