<svg xmlns="http://www.w3.org/2000/svg" width="258.253" height="323.639" viewBox="0 0 258.253 323.639">
  <g id="Groupe_590" data-name="Groupe 590" transform="translate(-916.317 -153)">
    <g id="Groupe_380" data-name="Groupe 380" transform="translate(719.285 126.77)">
      <g id="Groupe_372" data-name="Groupe 372" transform="translate(138 -206)">
        <g id="Tracé_318" data-name="Tracé 318" fill="#e13833" stroke-linejoin="round">
          <path d="M 250 457.0096130371094 L 248.4885101318359 455.8623352050781 L 199.9882507324219 419.0488891601563 C 199.5060424804688 418.7046508789063 199.0127868652344 418.3311157226563 198.4821014404297 417.9083862304688 L 198.3226776123047 417.786376953125 L 192.4614715576172 413.3009948730469 L 193.7317657470703 413.3009948730469 C 193.4391021728516 412.9584655761719 193.1528930664063 412.6101989746094 192.8735504150391 412.2567443847656 C 191.268798828125 410.2261352539063 189.8843688964844 408.0148315429688 188.7586975097656 405.6841735839844 C 187.6121673583984 403.310302734375 186.7295837402344 400.8028564453125 186.135498046875 398.2314453125 C 185.5246887207031 395.5877380371094 185.2149963378906 392.8582763671875 185.2149963378906 390.1189880371094 C 185.2149963378906 385.3485717773438 186.1334838867188 380.7191772460938 187.9449768066406 376.359375 C 189.6953277587891 372.1466979980469 192.2013092041016 368.3631286621094 195.3933258056641 365.1138000488281 C 198.5883636474609 361.8613586425781 202.3105926513672 359.30712890625 206.4566040039063 357.5220642089844 C 210.75341796875 355.6720581054688 215.3168029785156 354.7340087890625 220.0200042724609 354.7340087890625 C 227.1116180419922 354.7340087890625 233.9344024658203 356.8901977539063 239.7507476806641 360.969482421875 C 242.5488433837891 362.931884765625 245.0469207763672 365.2954406738281 247.1756439208984 367.9944458007813 C 248.2158660888672 369.3133850097656 249.1591949462891 370.7015380859375 250.0000152587891 372.1492309570313 C 250.8408660888672 370.7015380859375 251.7842254638672 369.3133850097656 252.8245086669922 367.9944152832031 C 254.9532470703125 365.2954406738281 257.4513854980469 362.9319152832031 260.24951171875 360.969482421875 C 266.0658569335938 356.8901977539063 272.8882141113281 354.7340087890625 279.97900390625 354.7340087890625 C 284.6821899414063 354.7340087890625 289.2456359863281 355.6720581054688 293.5425415039063 357.5220336914063 C 297.6886291503906 359.30712890625 301.4109802246094 361.8613586425781 304.6061401367188 365.11376953125 C 307.7982788085938 368.3630981445313 310.3044128417969 372.1466674804688 312.0548400878906 376.3593444824219 C 313.866455078125 380.7191772460938 314.7850036621094 385.3485717773438 314.7850036621094 390.1189880371094 C 314.7850036621094 392.8582763671875 314.4753112792969 395.5877380371094 313.864501953125 398.2314453125 C 313.2704162597656 400.8028564453125 312.3878479003906 403.310302734375 311.2413024902344 405.6841735839844 C 310.1156311035156 408.0148315429688 308.7311706542969 410.2261352539063 307.1264343261719 412.2567443847656 C 306.8471069335938 412.6101989746094 306.5608825683594 412.9584655761719 306.2682189941406 413.3009948730469 L 307.6379089355469 413.3009948730469 L 301.6623840332031 417.7984619140625 L 301.5099792480469 417.9131469726563 C 301.0040283203125 418.3175659179688 300.5005798339844 418.69921875 300.0126953125 419.0481872558594 L 251.5114898681641 455.8623352050781 L 250 457.0096130371094 Z" stroke="none"/>
          <path d="M 220.02001953125 357.2340087890625 C 202.177978515625 357.2340087890625 187.7149963378906 371.9570007324219 187.7149963378906 390.1189880371094 C 187.7149963378906 400.5119934082031 192.4559936523438 409.7730102539063 199.8510131835938 415.8009948730469 L 199.8419799804688 415.8009948730469 L 200.02099609375 415.93798828125 C 200.4949951171875 416.3160095214844 200.9769897460938 416.6839904785156 201.4700012207031 417.0350036621094 L 250 453.8710021972656 L 298.5299987792969 417.0350036621094 C 299.0220031738281 416.6839904785156 299.5050048828125 416.3160095214844 299.9769897460938 415.93798828125 L 300.1589965820313 415.8009948730469 L 300.1489868164063 415.8009948730469 C 307.5440063476563 409.7730102539063 312.2850036621094 400.5119934082031 312.2850036621094 390.1189880371094 C 312.2850036621094 371.9570007324219 297.8210144042969 357.2340087890625 279.97900390625 357.2340087890625 C 266.3940124511719 357.2340087890625 254.7729949951172 365.7749938964844 250 377.8689880371094 C 245.2270050048828 365.7749938964844 233.6069946289063 357.2340087890625 220.02001953125 357.2340087890625 M 220.02001953125 352.2340087890625 C 227.6279907226563 352.2340087890625 234.9471740722656 354.5469055175781 241.1862487792969 358.9226684570313 C 244.1836242675781 361.0248718261719 246.8591613769531 363.5561828613281 249.1385803222656 366.4462585449219 C 249.4329986572266 366.8195495605469 249.7202606201172 367.1981811523438 250.0000610351563 367.5816345214844 C 250.2798614501953 367.1981811523438 250.5671691894531 366.8195190429688 250.8616027832031 366.4461975097656 C 253.1410369873047 363.55615234375 255.8166198730469 361.0248718261719 258.8139953613281 358.9226684570313 C 265.0531005859375 354.5469055175781 272.371826171875 352.2340087890625 279.97900390625 352.2340087890625 C 285.0241394042969 352.2340087890625 289.9201965332031 353.2406005859375 294.5311584472656 355.2257995605469 C 298.9763793945313 357.1396789550781 302.9661254882813 359.8770141601563 306.3895263671875 363.3617553710938 C 309.806884765625 366.84033203125 312.4897155761719 370.890625 314.3634643554688 375.4000549316406 C 316.3020629882813 380.0654907226563 317.2850036621094 385.0176391601563 317.2850036621094 390.1189880371094 C 317.2850036621094 393.0474548339844 316.9537353515625 395.9662170410156 316.3003540039063 398.7942199707031 C 315.6644592285156 401.5464782714844 314.7197570800781 404.2304382324219 313.4924926757813 406.7714538574219 C 312.2875366210938 409.2662048339844 310.8056030273438 411.6332397460938 309.0878601074219 413.8068237304688 C 307.4389343261719 415.8933410644531 305.5687255859375 417.8067321777344 303.5257263183594 419.4977722167969 C 303.4113159179688 419.6018981933594 303.2912292480469 419.7014770507813 303.1658020019531 419.7958679199219 L 303.0421752929688 419.888916015625 C 302.5213623046875 420.304443359375 302.0020141601563 420.6980895996094 301.4965209960938 421.060546875 L 253.0229797363281 457.8536376953125 C 252.1294403076172 458.5318908691406 251.0647125244141 458.8710021972656 250 458.8710021972656 C 248.9352874755859 458.8710021972656 247.8705596923828 458.5318908691406 246.9770202636719 457.8536376953125 L 198.505126953125 421.0617980957031 C 198.0028076171875 420.7023010253906 197.4909973144531 420.3146362304688 196.9439697265625 419.8793334960938 L 196.8033142089844 419.7716979980469 C 196.6930847167969 419.6873474121094 196.5870666503906 419.5989990234375 196.4855041503906 419.507080078125 C 194.4381408691406 417.8137512207031 192.5640869140625 415.8971557617188 190.9121398925781 413.8068237304688 C 189.1943664550781 411.6332397460938 187.7124633789063 409.2662048339844 186.5075073242188 406.7714538574219 C 185.2802429199219 404.2304382324219 184.3355407714844 401.5464782714844 183.6996459960938 398.7942199707031 C 183.0462951660156 395.9662170410156 182.7149963378906 393.0474548339844 182.7149963378906 390.1189880371094 C 182.7149963378906 385.0176696777344 183.6978759765625 380.0655517578125 185.6363220214844 375.400146484375 C 187.5099792480469 370.8906860351563 190.1926879882813 366.8404235839844 193.6098937988281 363.36181640625 C 197.0331726074219 359.8770446777344 201.0228271484375 357.1397094726563 205.4679565429688 355.225830078125 C 210.078857421875 353.2406005859375 214.974853515625 352.2340087890625 220.02001953125 352.2340087890625 Z" stroke="none" fill="#fff"/>
        </g>
        <path id="Tracé_319" data-name="Tracé 319" d="M300.149,399.893h.01l-.182.136q-.708.568-1.447,1.1L250,437.963l-48.53-36.836q-.739-.528-1.449-1.1l-.179-.136h.009a32.978,32.978,0,0,1-11.177-17.739,33.529,33.529,0,0,0-.959,7.965A33.043,33.043,0,0,0,199.851,415.8h-.009l.179.137c.474.378.956.746,1.449,1.1L250,453.871l48.53-36.836c.492-.351.975-.719,1.447-1.1l.182-.137h-.01a33.043,33.043,0,0,0,12.136-25.682,33.528,33.528,0,0,0-.959-7.965A32.972,32.972,0,0,1,300.149,399.893Z" fill="#b8201c"/>
      </g>
      <g id="Groupe_379" data-name="Groupe 379">
        <g id="Groupe_373" data-name="Groupe 373">
          <path id="Tracé_320" data-name="Tracé 320" d="M284.929,327.748l-4.963-.611a145.742,145.742,0,0,1,3.387-18.217,39.715,39.715,0,0,1-10.812-4.492C253.83,293.2,248,269.309,247.5,256.967c-.335-8.339-.016-38.648,0-39.677l5,.067c0,.251-.332,31.205,0,39.409.425,10.562,5.7,33.218,22.617,43.375a34.749,34.749,0,0,0,9.581,3.949c3.532-11.729,9.14-23.525,18.028-32.233,9.853-9.654,21.63-13.064,31.5-9.111,6.82,2.729,11.2,8.606,11.43,15.336.308,8.983-6.64,17.57-19.064,23.561-14.32,6.9-27.141,9.644-38.315,8.207A140.557,140.557,0,0,0,284.929,327.748Zm4.72-22.785c10.044,1.1,21.674-1.514,34.765-7.824,10.558-5.09,16.476-11.973,16.239-18.885-.162-4.721-3.339-8.885-8.291-10.867-7.973-3.188-17.744-.184-26.139,8.043C298.158,283.328,292.976,294.115,289.649,304.963Z" fill="#b8201c"/>
        </g>
        <g id="Groupe_374" data-name="Groupe 374">
          <path id="Tracé_321" data-name="Tracé 321" d="M252.371,229.377c.039-7.538.127-11.891.129-12.02l-5-.067c-.007.521-.092,4.727-.131,12.087Z" fill="#7a1613"/>
        </g>
        <path id="Tracé_322" data-name="Tracé 322" d="M250,26.23a9.6,9.6,0,0,0-9.6,9.6V43.77a9.6,9.6,0,1,0,19.194,0V35.827A9.6,9.6,0,0,0,250,26.23ZM257.079,42.8a7.081,7.081,0,1,1-14.158,0v-6a7.081,7.081,0,1,1,14.158,0Z" fill="#2e2e2e"/>
        <path id="Tracé_323" data-name="Tracé 323" d="M250,28.5a7.865,7.865,0,0,0-7.732,7.99V43.1a7.736,7.736,0,1,0,15.463,0V36.493A7.864,7.864,0,0,0,250,28.5Zm7.079,14.3a7.081,7.081,0,1,1-14.158,0v-6a7.081,7.081,0,1,1,14.158,0Z" fill="#141414"/>
        <path id="Tracé_324" data-name="Tracé 324" d="M257.079,36.8v6a7.081,7.081,0,1,1-14.158,0v-6a7.439,7.439,0,0,1,.171-1.569h-2.659c-.012.2-.03.4-.03.6V43.77a9.6,9.6,0,1,0,19.194,0V35.827c0-.2-.018-.4-.031-.6h-2.658A7.372,7.372,0,0,1,257.079,36.8Z" fill="#141414"/>
        <rect id="Rectangle_115" data-name="Rectangle 115" width="78.213" height="61.993" rx="20" transform="translate(210.894 37.792)" fill="#ffcfcf"/>
        <path id="Tracé_325" data-name="Tracé 325" d="M217.032,48.465a20.156,20.156,0,0,0-4.019.4,19.893,19.893,0,0,0-2.119,8.923V79.785a20,20,0,0,0,20,20h38.212a20,20,0,0,0,20-20V57.792a19.881,19.881,0,0,0-2.12-8.923,20.139,20.139,0,0,0-4.018-.4Z" fill="#e6b0b0"/>
        <rect id="Rectangle_116" data-name="Rectangle 116" width="9.334" height="14" transform="translate(245.333 210.324)" fill="#ffcfcf"/>
        <path id="Tracé_326" data-name="Tracé 326" d="M257.721,213.963H242.28L233,183.463h34Z" fill="#e6a1a1"/>
        <path id="Tracé_327" data-name="Tracé 327" d="M239.8,205.829a35.216,35.216,0,0,0,20.39,0l6.8-22.366H233Z" fill="#cf7e7e"/>
        <path id="Tracé_328" data-name="Tracé 328" d="M285.125,168.768A35.125,35.125,0,0,1,250,203.893h0a35.125,35.125,0,0,1-35.125-35.125V141.654c0-19.4,15.726-23.881,35.125-23.881h0c19.4,0,35.125,4.482,35.125,23.881Z" fill="#ffcfcf"/>
        <rect id="Rectangle_117" data-name="Rectangle 117" width="105.936" height="119.186" rx="20" transform="translate(197.032 52.558)" fill="#ffcfcf"/>
        <rect id="Rectangle_118" data-name="Rectangle 118" width="105.936" height="119.186" rx="20" transform="translate(197.032 52.558)" fill="#ffcfcf"/>
        <g id="Groupe_375" data-name="Groupe 375">
          <path id="Tracé_329" data-name="Tracé 329" d="M208.161,162.873V83.688a20,20,0,0,1,20-20H294.1a19.922,19.922,0,0,1,7.429,1.441,19.994,19.994,0,0,0-18.558-12.571H217.032a20,20,0,0,0-20,20v79.186A20,20,0,0,0,209.6,170.315,19.935,19.935,0,0,1,208.161,162.873Z" fill="#ffe0e0"/>
        </g>
        <path id="Tracé_330" data-name="Tracé 330" d="M299.173,60.869a20.347,20.347,0,0,1,2.353,9.542V149.6a19.8,19.8,0,0,1-17.48,19.9c-1.423,18.053-16.117,32.251-34.046,32.251s-32.622-14.2-34.046-32.251a19.8,19.8,0,0,1-17.48-19.9V70.411a20.349,20.349,0,0,1,2.354-9.543,19.885,19.885,0,0,0-3.8,11.69v79.186a20,20,0,0,0,17.97,19.9,35.115,35.115,0,0,0,70,0,20,20,0,0,0,17.97-19.9V72.558A19.882,19.882,0,0,0,299.173,60.869Z" fill="#e6a1a1"/>
        <path id="Tracé_331" data-name="Tracé 331" d="M202.032,92.081v59.663A14.943,14.943,0,0,0,215.5,166.667l4.146.418.337,4.153a30.115,30.115,0,0,0,60.029,0l.336-4.153,4.145-.418a14.942,14.942,0,0,0,13.472-14.923V92.081Z" fill="#e13833"/>
        <g id="Groupe_376" data-name="Groupe 376">
          <path id="Tracé_332" data-name="Tracé 332" d="M292.986,92.081v54.682a14.941,14.941,0,0,1-13.471,14.922l-4.146.419-.336,4.152a30.105,30.105,0,0,1-48.623,21.209,30.1,30.1,0,0,0,53.605-16.227l.336-4.153,4.145-.418a14.942,14.942,0,0,0,13.472-14.923V92.081Z" fill="#b8201c"/>
        </g>
        <g id="Groupe_377" data-name="Groupe 377">
          <path id="Tracé_333" data-name="Tracé 333" d="M288.491,343.865a6,6,0,1,1-12.008,0c0-3.314,6-12.006,6-12.006S288.491,340.551,288.491,343.865Z" fill="#b8201c"/>
          <path id="Tracé_334" data-name="Tracé 334" d="M283.106,332.781c1.425,3.02,3.488,7.85,3.222,10.029a6.005,6.005,0,0,1-6.684,5.237,5.942,5.942,0,0,1-1.966-.6,6,6,0,0,0,10.813-3.582C288.491,341.207,284.636,335.1,283.106,332.781Z" fill="#7a1613"/>
          <path id="Tracé_335" data-name="Tracé 335" d="M281.089,342.8c-.272,1.281-1.188,2.17-2.046,1.986s-1.335-1.367-1.064-2.646,2.537-4.307,2.537-4.307S281.36,341.523,281.089,342.8Z" fill="#fff"/>
        </g>
        <path id="Tracé_336" data-name="Tracé 336" d="M284.769,303.857c-.024.078-.049.155-.073.233a35.634,35.634,0,0,1-3.411-1.051l-1.616,4.738c1.208.432,2.43.828,3.684,1.143-.1.381-.186.76-.28,1.139C283.352,309.018,284.357,305.268,284.769,303.857Z" fill="#7a1613"/>
        <path id="Tracé_337" data-name="Tracé 337" d="M292.571,305.164c-.987-.037-1.964-.1-2.922-.2l-1.378,4.887c.953.121,1.921.2,2.9.265Z" fill="#7a1613"/>
        <g id="Groupe_378" data-name="Groupe 378">
          <circle id="Ellipse_35" data-name="Ellipse 35" cx="25.806" cy="25.806" r="25.806" transform="translate(223.46 155.414) rotate(-88.496)" fill="none" stroke="#fff" stroke-miterlimit="10" stroke-width="1"/>
          <path id="Tracé_338" data-name="Tracé 338" d="M266.44,123.726H256.5V113.79h-13.14v9.936h-9.936v13.139h9.936V146.8H256.5v-9.936h9.937Z" fill="#fff"/>
        </g>
      </g>
    </g>
  </g>
</svg>
