<svg id="Groupe_294" data-name="Groupe 294" xmlns="http://www.w3.org/2000/svg" width="31.025" height="31.025" viewBox="0 0 31.025 31.025">
  <g id="Groupe_292" data-name="Groupe 292">
    <path id="Tracé_296" data-name="Tracé 296" d="M146.833,493.322a15.512,15.512,0,1,1,15.513-15.512A15.53,15.53,0,0,1,146.833,493.322Z" transform="translate(-131.32 -462.297)" fill="#3c5a99"/>
  </g>
  <g id="Groupe_293" data-name="Groupe 293" transform="translate(11.177 6.215)">
    <path id="Tracé_297" data-name="Tracé 297" d="M152.887,482.6v8.991a.234.234,0,0,0,.234.234h3.339a.234.234,0,0,0,.234-.234v-9.137h2.421a.234.234,0,0,0,.233-.214l.233-2.753a.235.235,0,0,0-.234-.254h-2.653v-1.953a.829.829,0,0,1,.829-.829h1.866a.234.234,0,0,0,.234-.234v-2.753a.234.234,0,0,0-.234-.234h-3.152a3.349,3.349,0,0,0-3.349,3.349v2.654h-1.669a.234.234,0,0,0-.234.234v2.753a.234.234,0,0,0,.234.234h1.669Z" transform="translate(-150.984 -473.231)" fill="#fff" fill-rule="evenodd"/>
  </g>
</svg>
