<svg xmlns="http://www.w3.org/2000/svg" width="26.617" height="26.612" viewBox="0 0 26.617 26.612">
  <path id="Tracé_256" data-name="Tracé 256" d="M627.226,202.95a13.306,13.306,0,1,0,13.311,13.306A13.319,13.319,0,0,0,627.226,202.95Zm3.691,7.894a.2.2,0,0,1-.2.2h-1.6a.71.71,0,0,0-.712.712v1.672h2.277a.2.2,0,0,1,.2.219l-.2,2.36a.2.2,0,0,1-.2.185h-2.077v7.84a.2.2,0,0,1-.2.2h-2.867a.2.2,0,0,1-.2-.2v-7.84H623.71a.2.2,0,0,1-.2-.2v-2.36a.206.206,0,0,1,.2-.2h1.429v-2.277a2.875,2.875,0,0,1,2.877-2.872h2.7a.2.2,0,0,1,.2.2Z" transform="translate(-613.92 -202.95)" fill="#fff"/>
</svg>
