<svg xmlns="http://www.w3.org/2000/svg" xmlns:xlink="http://www.w3.org/1999/xlink" width="20.688" height="20" viewBox="0 0 20.688 20">
  <defs>
    <clipPath id="clip-path">
      <rect width="20" height="20" fill="none"/>
    </clipPath>
  </defs>
  <g id="Groupe_590" data-name="Groupe 590" transform="translate(-567.726 -1720)">
    <g id="icons_like-dark" data-name="icons/like-dark" transform="translate(568 1720)" clip-path="url(#clip-path)">
      <rect id="bg" width="20" height="20" fill="none"/>
      <path id="path" d="M12.645,6.179A3.754,3.754,0,0,1,15.44,5c2.459,0,4.378,1.987,4.378,4.816,0,1.684-.842,3.1-2.357,4.614-.337.337-1.347,1.246-1.381,1.28-.135.135-.3.269-.471.438-.2.168-.438.37-.64.539-.471.4-.977.775-1.482,1.145a5.758,5.758,0,0,0-.471.37,2,2,0,0,0-.2.135.657.657,0,0,1-.775,0,2,2,0,0,0-.2-.135c-.135-.1-.3-.236-.471-.37-.505-.37-1.01-.775-1.482-1.145-.236-.2-.438-.37-.64-.539-.168-.135-.3-.3-.471-.438-.067-.034-1.078-.943-1.414-1.28C5.808,12.914,5,11.5,5,9.816,5,6.987,6.92,5,9.378,5a3.754,3.754,0,0,1,2.8,1.179,1.556,1.556,0,0,1,.236.236,1.556,1.556,0,0,1,.236-.236Zm.034,10.609c.471-.37.977-.741,1.414-1.111a4.9,4.9,0,0,0,.606-.539,5.18,5.18,0,0,0,.438-.4c.067-.067,1.078-.977,1.381-1.28,1.28-1.28,1.953-2.391,1.953-3.637A3.162,3.162,0,0,0,15.44,6.347a2.653,2.653,0,0,0-1.852.775,3.077,3.077,0,0,0-.438.539c-.067.1-.1.2-.135.236a.682.682,0,0,1-1.246,0,2.614,2.614,0,0,0-.135-.236,3.4,3.4,0,0,0-.438-.539,2.515,2.515,0,0,0-1.819-.775A3.162,3.162,0,0,0,6.347,9.816c0,1.246.674,2.357,1.953,3.671.3.3,1.313,1.212,1.381,1.28a5.18,5.18,0,0,0,.438.4c.2.168.4.337.606.539.438.37.943.741,1.414,1.111.1.067.168.135.269.2a.908.908,0,0,1,.269-.236Z" transform="translate(-2.53 -1.707)" fill="red"/>
    </g>
    <path id="Tracé_594" data-name="Tracé 594" d="M10369.431,770.051h5.624l1.79-4.091,2.239,7.421,2.874-6.4,1.534,3.068h5.126" transform="translate(-9800.955 959.891)" fill="none" stroke="#f32f2f" stroke-linecap="round" stroke-linejoin="round" stroke-width="1.5"/>
  </g>
</svg>
