<svg xmlns="http://www.w3.org/2000/svg" width="159.47" height="58.249" viewBox="0 0 159.47 58.249">
  <g id="Groupe_589" data-name="Groupe 589" transform="translate(-30.848 -35.277)">
    <g id="Groupe_444" data-name="Groupe 444" transform="translate(30.848 35.277)">
      <g id="Groupe_443" data-name="Groupe 443" transform="translate(15.985 12.238)">
        <path id="Tracé_395" data-name="Tracé 395" d="M128.316,103.714a.339.339,0,0,0-.353-.358.345.345,0,0,0-.383.326c-.016.1,0,.2-.011.295-.015.15-.006.328-.217.35-.19.02-.221-.134-.265-.268v0h0c.013-.3.028-.59.037-.886a.339.339,0,0,0-.352-.39c-.251-.008-.378.145-.385.394-.009.3-.019.592-.024.888,0,.159-.079.256-.235.258s-.229-.1-.23-.258c0-.218,0-.436-.007-.654s.03-.455.035-.683a.343.343,0,0,0-.342-.4.351.351,0,0,0-.39.386c-.013.446-.013.892-.019,1.337-.081.242-.25.238-.446.159-.058-.658.036-1.314.011-1.971.008-.185.02-.368.023-.553a.346.346,0,0,0-.337-.4.4.4,0,0,0-.41.387c-.016.361-.011.723-.015,1.085a10.274,10.274,0,0,0-.044,1.463c-.013.183-.039.365-.034.547.006.214-.076.277-.272.2-.236-.3-.465-.6-.709-.9a.328.328,0,0,0-.469-.073.323.323,0,0,0-.1.437c.14.307.286.61.431.916a3.683,3.683,0,0,0,.479.95,2.136,2.136,0,0,0,.69.85,2.241,2.241,0,0,0,.348.3.767.767,0,0,1,.323.633l-.019,5.247c-.018,4.933-2.979,9.032-6.541,9.019-3.63-.013-6.564-4.133-6.546-9.066l.018-4.933a9.346,9.346,0,0,0,5.492-3.065,1.263,1.263,0,0,0,.347-.958,16.214,16.214,0,0,0,3.667-9.441c.008-2.228-.517-3.462-1.492-4.236a10.281,10.281,0,0,0-4.175-1.473,1.508,1.508,0,0,0-1.232-.757,1.363,1.363,0,0,0-1.376,1.295,1.375,1.375,0,0,0,2.19.97c3.491.765,4.378.972,4.367,4.194a14.836,14.836,0,0,1-3.317,8.418,1.2,1.2,0,0,0-.89.405,6.565,6.565,0,0,1-4.533,2.382,6.709,6.709,0,0,1-4.58-2.415,1.11,1.11,0,0,0-.89-.412,14.862,14.862,0,0,1-3.259-8.442c.006-1.609.247-2.466.927-3.011a9.08,9.08,0,0,1,3.544-1.151,1.1,1.1,0,0,0,.819.279,1.311,1.311,0,0,0,1.375-1.233,1.363,1.363,0,0,0-1.366-1.3,1.4,1.4,0,0,0-.747.22,1.365,1.365,0,0,0-.488.527c-3.568.745-5.692,1.214-5.708,5.667a16.371,16.371,0,0,0,3.6,9.467,1.015,1.015,0,0,0,.272.96,9.712,9.712,0,0,0,5.538,3.105l-.018,4.933c-.022,6.028,3.8,10.907,8.458,10.924s8.441-4.834,8.463-10.862l.019-5.151a.647.647,0,0,1,.349-.564l0,0a2.639,2.639,0,0,0,1.358-2.86C128.287,104.411,128.316,104.062,128.316,103.714Z" transform="translate(-100.233 -88.396)" fill="#13c2d4"/>
        <path id="Tracé_396" data-name="Tracé 396" d="M199.1,140.31c.15.125.286.059.37-.13-.008-.044,0-.109-.03-.148a2.949,2.949,0,0,0-.565-.593.179.179,0,0,0-.262.047.229.229,0,0,0-.016.3A4.711,4.711,0,0,0,199.1,140.31Z" transform="translate(-175.897 -127.65)" fill="#13c2d4"/>
        <path id="Tracé_397" data-name="Tracé 397" d="M204.405,138.386c.15.018.217-.076.26-.292,0-.148.015-.378.009-.608a.217.217,0,0,0-.223-.237.226.226,0,0,0-.238.226c-.015.218-.021.438-.019.657A.232.232,0,0,0,204.405,138.386Z" transform="translate(-180.243 -125.995)" fill="#13c2d4"/>
        <path id="Tracé_398" data-name="Tracé 398" d="M208.048,140.668a2.474,2.474,0,0,0,.643-.579c.042-.141.017-.225-.059-.282a.2.2,0,0,0-.246-.028,2.731,2.731,0,0,0-.587.569.2.2,0,0,0,.017.246A.182.182,0,0,0,208.048,140.668Z" transform="translate(-182.99 -127.917)" fill="#13c2d4"/>
        <path id="Tracé_399" data-name="Tracé 399" d="M209.156,145.677c-.006.155.105.2.307.242.154,0,.384.015.613.007a.227.227,0,0,0,.006-.452c-.229-.016-.459-.017-.689-.015A.214.214,0,0,0,209.156,145.677Z" transform="translate(-184.062 -132.312)" fill="#13c2d4"/>
        <path id="Tracé_400" data-name="Tracé 400" d="M196.256,145.546c.229.017.46.016.69.016a.209.209,0,0,0,.232-.222c0-.13-.078-.2-.2-.238-.241,0-.482-.011-.722-.01a.2.2,0,0,0-.208.209A.211.211,0,0,0,196.256,145.546Z" transform="translate(-173.972 -132.03)" fill="#13c2d4"/>
      </g>
      <path id="Tracé_401" data-name="Tracé 401" d="M110.781,59.49A24.193,24.193,0,0,1,99.1,80.209a22.661,22.661,0,1,0-36.7-19.2c-.032-.5-.047-1.011-.047-1.523a24.212,24.212,0,1,1,48.424,0Z" transform="translate(-55.098 -35.277)" fill="#13c2d4"/>
      <path id="Tracé_402" data-name="Tracé 402" d="M30.848,82.137a28.588,28.588,0,0,1,13.8-24.483A26.777,26.777,0,1,0,88.012,80.337c.037.6.056,1.195.056,1.8a28.61,28.61,0,1,1-57.22,0Z" transform="translate(-30.848 -52.499)" fill="#046489"/>
    </g>
    <path id="Tracé_403" data-name="Tracé 403" d="M364.617,98.145a2.032,2.032,0,0,1,.665,1.349,1.2,1.2,0,0,1-1.248,1.188,1.749,1.749,0,0,1-1.188-.564,2.215,2.215,0,0,0-1.691-.725c-1.107,0-1.691.584-1.691,1.349,0,.523.221,1.107,1.389,1.55l.665.242c3.322,1.228,4.49,2.456,4.49,4.328,0,2.859-2.839,4.248-5.174,4.248a5.731,5.731,0,0,1-4.188-1.731,2.394,2.394,0,0,1-.644-1.49,1.2,1.2,0,0,1,1.228-1.268,1.807,1.807,0,0,1,1.429.845,2.862,2.862,0,0,0,2.154.966c.846,0,2.094-.3,2.094-1.57,0-.906-.564-1.389-2.094-1.993l-.725-.262c-2.094-.805-3.664-1.792-3.664-3.906,0-2.456,2.054-3.966,4.611-3.966A4.655,4.655,0,0,1,364.617,98.145Z" transform="translate(-256.011 -49.694)" fill="#046489"/>
    <path id="Tracé_404" data-name="Tracé 404" d="M404.586,98.59v11.215a1.54,1.54,0,1,1-3.08,0V98.59a1.54,1.54,0,1,1,3.08,0Z" transform="translate(-289.497 -49.918)" fill="#046489"/>
    <path id="Tracé_405" data-name="Tracé 405" d="M432.562,97.04a1.508,1.508,0,0,1,1.49,1.53v11.154a1.51,1.51,0,1,1-3.02,0v-4.188h-5.7v4.188a1.51,1.51,0,1,1-3.02,0V98.57a1.51,1.51,0,1,1,3.02,0v4.389h5.7V98.57A1.517,1.517,0,0,1,432.562,97.04Z" transform="translate(-304.81 -49.918)" fill="#046489"/>
    <path id="Tracé_406" data-name="Tracé 406" d="M487.059,109.794a1.421,1.421,0,0,1-1.47,1.369,1.52,1.52,0,0,1-1.45-.966l-.886-2.094H477.8l-.886,2.094a1.539,1.539,0,0,1-1.45.966,1.421,1.421,0,0,1-1.47-1.369,2.029,2.029,0,0,1,.2-.866l4.852-10.912a1.567,1.567,0,0,1,1.47-1.128,1.532,1.532,0,0,1,1.47,1.128l4.872,10.912A2.025,2.025,0,0,1,487.059,109.794Zm-4.812-4.067-1.731-4.047-1.711,4.047Z" transform="translate(-342.839 -49.806)" fill="#046489"/>
    <path id="Tracé_407" data-name="Tracé 407" d="M549.78,117c.206,0,.412.158.618.428a4.809,4.809,0,0,1,.966,3,5.658,5.658,0,0,1-11.314-.032,4.788,4.788,0,0,1,.951-2.947c.222-.317.4-.444.634-.444a.5.5,0,0,1,.507.507.991.991,0,0,1-.3.6,3.719,3.719,0,0,0-.745,2.3,4.616,4.616,0,0,0,9.222.016,3.735,3.735,0,0,0-.745-2.314,1.032,1.032,0,0,1-.3-.6A.5.5,0,0,1,549.78,117Z" transform="translate(-391.45 -64.606)" fill="#13c2d4"/>
    <path id="Tracé_408" data-name="Tracé 408" d="M606.719,109.946a.624.624,0,1,1,0,1.248h-6.966a.741.741,0,0,1-.765-.765V97.765a.705.705,0,0,1,.7-.725.718.718,0,0,1,.7.725v12.181Z" transform="translate(-434.821 -49.918)" fill="#046489"/>
    <path id="Tracé_409" data-name="Tracé 409" d="M639.272,97.765V110.55a.714.714,0,0,1-.685.725.735.735,0,0,1-.725-.725V97.765a.722.722,0,0,1,.725-.725A.7.7,0,0,1,639.272,97.765Z" transform="translate(-463.427 -49.918)" fill="#046489"/>
    <path id="Tracé_410" data-name="Tracé 410" d="M666.9,110.574a.662.662,0,0,1-.644.644.644.644,0,0,1-.484-.221l-5.939-6.362-2.537,2.6v3.281a.731.731,0,0,1-.725.7.714.714,0,0,1-.685-.725V97.669a.7.7,0,0,1,.685-.7.731.731,0,0,1,.725.7v7.751l8.013-8.235a.722.722,0,0,1,.483-.221.649.649,0,0,1,.644.644.576.576,0,0,1-.161.443l-5.557,5.678,6,6.4A.678.678,0,0,1,666.9,110.574Z" transform="translate(-476.692 -49.862)" fill="#046489"/>
    <path id="Tracé_411" data-name="Tracé 411" d="M380.762,186.275a1.429,1.429,0,0,0,.393-1.057,1.533,1.533,0,0,0-.483-1.188,1.862,1.862,0,0,0-1.308-.443h-.02l1.389-1.61h-.845l-1.651,1.852v.685a2.038,2.038,0,0,1,1.027-.242q1.168,0,1.168.926a.676.676,0,0,1-.765.765h-2.054l-.382.7h2.5A1.4,1.4,0,0,0,380.762,186.275Z" transform="translate(-271.633 -112.421)" fill="#046489"/>
    <path id="Tracé_412" data-name="Tracé 412" d="M452.884,232.436a.826.826,0,1,0,.806.825A.721.721,0,0,0,452.884,232.436Z" transform="translate(-326.714 -149.553)" fill="#046489"/>
    <path id="Tracé_413" data-name="Tracé 413" d="M461.574,232.436a.826.826,0,1,0,.805.825A.72.72,0,0,0,461.574,232.436Z" transform="translate(-333.109 -149.553)" fill="#046489"/>
    <path id="Tracé_414" data-name="Tracé 414" d="M397.766,180.143a4.7,4.7,0,0,0-2.73-.78q-.195,0-.372.018l3.633-4.112h-1.223l-4.024,4.467v1.17a5.591,5.591,0,0,1,1.9-.337,3.5,3.5,0,0,1,2.162.638,2.431,2.431,0,0,1,1.028,2.145v.177q0,2.074-1.932,2.074H391.6q-1.95,0-1.95-2.021v-7.333a.594.594,0,0,0-.869-.526h0a.593.593,0,0,0-.319.526v7.262a1.818,1.818,0,0,1-2.021,2.092h-.762q-1.95,0-1.95-2.021V180.1a.594.594,0,0,0-.869-.526h0a.594.594,0,0,0-.319.526v3.486q0,2.021-1.949,2.021h-7.036a1.763,1.763,0,0,1-1.967-2.021v-7.333a.594.594,0,0,0-.868-.526h0a.594.594,0,0,0-.319.526v7.262q0,2.092-1.932,2.092h-5.937q-1.95,0-1.949-2.092v-1.82a.594.594,0,0,0-.869-.526h0a.593.593,0,0,0-.319.526v1.962a3.1,3.1,0,0,0,.78,2.224,2.742,2.742,0,0,0,2.092.824h6.328A2.8,2.8,0,0,0,371,185.62,2.781,2.781,0,0,0,373.4,186.7h7.338a2.859,2.859,0,0,0,2.41-1.081,2.782,2.782,0,0,0,2.393,1.081h1.028a2.881,2.881,0,0,0,2.463-1.116,2.786,2.786,0,0,0,2.428,1.116h4.874a3,3,0,0,0,2.074-.709,2.97,2.97,0,0,0,.922-2.322v-.337A3.689,3.689,0,0,0,397.766,180.143Z" transform="translate(-258.509 -107.485)" fill="#046489"/>
    <path id="Tracé_415" data-name="Tracé 415" d="M579.179,176.767q.785,0,.785-.846a.7.7,0,0,0-.785-.805.721.721,0,0,0-.825.805A.739.739,0,0,0,579.179,176.767Z" transform="translate(-419.637 -107.372)" fill="#046489"/>
    <path id="Tracé_416" data-name="Tracé 416" d="M570.489,176.767q.785,0,.785-.846a.7.7,0,0,0-.785-.805.721.721,0,0,0-.825.805A.739.739,0,0,0,570.489,176.767Z" transform="translate(-413.242 -107.372)" fill="#046489"/>
    <path id="Tracé_417" data-name="Tracé 417" d="M578.382,189a3.942,3.942,0,0,0-3.155-1.365,5.572,5.572,0,0,0-4.29,2.056,10.454,10.454,0,0,0-2.286,4.573q-1.294-.283-1.294-1.95v-2.192a.594.594,0,0,0-.869-.526h0a.594.594,0,0,0-.318.526v2.192q0,2.021-1.95,2.021H563.6l-6.508.1h-.62a6.95,6.95,0,0,1-1.976-.222,3.171,3.171,0,0,1-1.285-.771,7.526,7.526,0,0,0,1.016-1.03.692.692,0,0,0,.154-.439v-.3a.72.72,0,0,0-.09-.35q-2.009-3.593-4.73-3.593h-.036a4.226,4.226,0,0,0-2.909,1.318.4.4,0,0,0-.122.286v.1a.389.389,0,0,0,.638.3,3.671,3.671,0,0,1,2.339-.942q2.05,0,3.547,2.538a.742.742,0,0,1-.1.887,7.463,7.463,0,0,1-5.661,2.211h-2.233a1.763,1.763,0,0,1-1.967-2.021v-4.55a.594.594,0,0,0-.869-.526h0a.594.594,0,0,0-.319.526v.6a3.046,3.046,0,0,0-4.077.23,3.763,3.763,0,0,0-.993,2.729,3.884,3.884,0,0,0,.744,2.428A2.879,2.879,0,0,0,539.953,195a3.026,3.026,0,0,0,2.268-.957,2.7,2.7,0,0,0,2.641,1.489h2.375A9.185,9.185,0,0,0,552.484,194a4.145,4.145,0,0,0,1.622,1.188,6.7,6.7,0,0,0,2.349.337h.638l6.508-.1h.762a2.859,2.859,0,0,0,2.41-1.081,2.782,2.782,0,0,0,2.393,1.081h7.214a2.8,2.8,0,0,0,3-3.048v-.5A4.313,4.313,0,0,0,578.382,189Zm-38.394,4.972a1.789,1.789,0,0,1-1.462-.691,2.844,2.844,0,0,1-.558-1.843,2.93,2.93,0,0,1,.558-1.853,1.748,1.748,0,0,1,1.445-.718,2.382,2.382,0,0,1,1.9.939v2.641a4.848,4.848,0,0,0,.035.514A2.311,2.311,0,0,1,539.988,193.968Zm38.2-1.728q0,2.092-1.9,2.092h-6.576a10.015,10.015,0,0,1,1.844-3.669,4.712,4.712,0,0,1,3.686-1.95,2.75,2.75,0,0,1,2,.78,3.168,3.168,0,0,1,.939,2.393Z" transform="translate(-389.057 -116.312)" fill="#046489"/>
    <g id="Groupe_445" data-name="Groupe 445" transform="translate(136.86 60.301)">
      <path id="Tracé_418" data-name="Tracé 418" d="M496.286,156.707l2.8-3.049a2.522,2.522,0,0,1,1.79-.817h.007l9.582-.19-.017-.4.011.4a3.085,3.085,0,0,0,3-3.008h0l.1-2.3a.4.4,0,1,0-.792-.021l-.1,2.3h0a2.292,2.292,0,0,1-2.228,2.235h-.007l-9.582.19.018.4-.011-.4a3.315,3.315,0,0,0-2.352,1.073l-2.792,3.076a.364.364,0,0,0,.021.533.4.4,0,0,0,.56-.024Z" transform="translate(-495.6 -146.937)" fill="#13c2d4"/>
    </g>
    <ellipse id="Ellipse_51" data-name="Ellipse 51" cx="1.65" cy="1.65" rx="1.65" ry="1.65" transform="translate(137.421 66.208)" fill="#046489"/>
    <ellipse id="Ellipse_52" data-name="Ellipse 52" cx="0.792" cy="0.792" rx="0.792" ry="0.792" transform="translate(157.303 52.13)" fill="#046489"/>
    <ellipse id="Ellipse_53" data-name="Ellipse 53" cx="0.792" cy="0.792" rx="0.792" ry="0.792" transform="translate(149.644 52.13)" fill="#046489"/>
  </g>
</svg>
