<svg id="Medicament" xmlns="http://www.w3.org/2000/svg" width="15.019" height="16" viewBox="0 0 15.019 16">
  <g id="Groupe_241" data-name="Groupe 241" transform="translate(3.125 3.937)">
    <g id="Groupe_240" data-name="Groupe 240">
      <path id="Tracé_284" data-name="Tracé 284" d="M116.008,125.994a.313.313,0,1,0,.313.313A.313.313,0,0,0,116.008,125.994Z" transform="translate(-115.696 -125.994)" fill="#13c2d4"/>
    </g>
  </g>
  <g id="Groupe_243" data-name="Groupe 243" transform="translate(3.437 8.531)">
    <g id="Groupe_242" data-name="Groupe 242" transform="translate(0)">
      <path id="Tracé_285" data-name="Tracé 285" d="M128.508,274.236h-.937V273.3a.312.312,0,1,0-.625,0v.937h-.937a.312.312,0,1,0,0,.625h.937v.937a.312.312,0,0,0,.625,0v-.937h.937a.312.312,0,1,0,0-.625Z" transform="translate(-125.696 -272.986)" fill="#13c2d4"/>
    </g>
  </g>
  <g id="Groupe_245" data-name="Groupe 245">
    <g id="Groupe_244" data-name="Groupe 244" transform="translate(0)">
      <path id="Tracé_286" data-name="Tracé 286" d="M30.385,10.062a2.5,2.5,0,0,0-3.415-.915L25.7,9.88V7.166a1.574,1.574,0,0,0-.312-.937L23.826,4.146V3.259a.939.939,0,0,0,.625-.884V.937A.939.939,0,0,0,23.513,0H17.888a.939.939,0,0,0-.937.937V2.375a.939.939,0,0,0,.625.884v.887L16.013,6.229a1.573,1.573,0,0,0-.312.937v6.052a1.564,1.564,0,0,0,1.562,1.562h5.022a2.5,2.5,0,0,0,3.4.884l3.789-2.187A2.5,2.5,0,0,0,30.385,10.062ZM17.576.937a.313.313,0,0,1,.312-.312h5.625a.313.313,0,0,1,.312.312V2.375a.313.313,0,0,1-.312.312H17.888a.313.313,0,0,1-.312-.312V.937ZM16.513,6.6l1.625-2.166A.312.312,0,0,0,18.2,4.25V3.312h5v.625H20.388a.312.312,0,1,0,0,.625h2.969L24.888,6.6a.946.946,0,0,1,.181.459H16.333A.945.945,0,0,1,16.513,6.6Zm.75,7.552a.938.938,0,0,1-.937-.937V12.9H22a2.5,2.5,0,0,0,.015,1.253H17.263Zm4.985-1.875H16.326V7.687h8.75v2.554l-1.894,1.094A2.481,2.481,0,0,0,22.248,12.281Zm3.12,2.842a1.875,1.875,0,1,1-1.875-3.247l1.7-.979,1.875,3.247Zm3.789-2.187-1.551.9-1.875-3.247,1.551-.9a1.875,1.875,0,1,1,1.875,3.247Z" transform="translate(-15.701)" fill="#13c2d4"/>
    </g>
  </g>
</svg>
