<svg xmlns="http://www.w3.org/2000/svg" width="40.312" height="34.399" viewBox="0 0 40.312 34.399">
  <g id="Groupe_589" data-name="Groupe 589" transform="translate(-4.611 -6.168)">
    <path id="Tracé_74" data-name="Tracé 74" d="M208.869,312.151a11.231,11.231,0,0,0,1.622,1.395,12.159,12.159,0,0,1-22.821-5.859c0-6.713,8.465-22.226,12.162-22.226,2.27,0,5.881,4.994,8.573,10.54a11.1,11.1,0,0,0-1.957,3.351,12.89,12.89,0,0,0,0,8.94A11.116,11.116,0,0,0,208.869,312.151Z" transform="translate(-183.059 -279.292)" fill="#fa3535"/>
    <path id="Tracé_76" data-name="Tracé 76" d="M225.791,299.466a9.151,9.151,0,0,0-1.978-3.124,9.668,9.668,0,0,0-3.157-2.151,10.631,10.631,0,0,0-4.27-.811,10.738,10.738,0,0,0-4.292.811,9.65,9.65,0,0,0-3.178,2.151,8.073,8.073,0,0,0-1.005,1.265,8.615,8.615,0,0,0-.951,1.859,10.785,10.785,0,0,0,0,7.427,8.939,8.939,0,0,0,1.957,3.124,7.807,7.807,0,0,0,.951.843,9.622,9.622,0,0,0,2.227,1.3,12.035,12.035,0,0,0,8.573,0,9.254,9.254,0,0,0,3.178-2.14,8.938,8.938,0,0,0,1.957-3.124,10.493,10.493,0,0,0,.67-3.719A10.252,10.252,0,0,0,225.791,299.466Zm-5.567,5.708a4.942,4.942,0,0,1-.876,1.557,3.971,3.971,0,0,1-1.319,1.005,3.771,3.771,0,0,1-1.643.357,3.834,3.834,0,0,1-3.016-1.34,5.218,5.218,0,0,1-1.189-3.578,5.951,5.951,0,0,1,.324-1.989,4.761,4.761,0,0,1,.886-1.557,3.866,3.866,0,0,1,1.319-1.005,3.95,3.95,0,0,1,1.676-.357,3.793,3.793,0,0,1,2.973,1.341,5.208,5.208,0,0,1,1.189,3.567A5.969,5.969,0,0,1,220.224,305.174Z" transform="translate(-181.55 -278.65)" fill="#046489"/>
  </g>
</svg>
