<svg xmlns="http://www.w3.org/2000/svg" width="26.616" height="26.612" viewBox="0 0 26.616 26.612">
  <path id="Tracé_251" data-name="Tracé 251" d="M547.691,202.95A13.306,13.306,0,1,0,561,216.256,13.324,13.324,0,0,0,547.691,202.95Zm7.7,8.464a.362.362,0,0,1-.078.244,5.969,5.969,0,0,1-1.234,1.292c-.068.054-.19.107-.19.21a9.555,9.555,0,0,1-2.521,6.977,9.383,9.383,0,0,1-9.118,2.131,8.446,8.446,0,0,1-1.76-.7c-.19-.1-.371-.21-.551-.327-.044-.039-.078-.068-.039-.093s.068-.024.21,0a6.232,6.232,0,0,0,2.638-.341,4.059,4.059,0,0,0,1.736-.917c0-.01.015-.01.02-.024-.117-.024-.229-.024-.346-.044a3.414,3.414,0,0,1-2.545-2.131c-.034-.083,0-.127.088-.112a3.731,3.731,0,0,0,1.214-.039,1.9,1.9,0,0,1-.41-.122,3.286,3.286,0,0,1-2.023-2.618,2.357,2.357,0,0,1-.02-.366c0-.083.044-.112.117-.063a3.314,3.314,0,0,0,1.234.346c-.136-.107-.268-.229-.39-.346a3.246,3.246,0,0,1-.556-3.832c.063-.093.1-.093.18,0a9.929,9.929,0,0,0,6.392,3.257c.068.01.073,0,.063-.078a3.519,3.519,0,0,1,.034-1.336,3.218,3.218,0,0,1,.634-1.263,3.368,3.368,0,0,1,1.058-.868,3.158,3.158,0,0,1,1.2-.356.407.407,0,0,1,.107-.015,3.139,3.139,0,0,1,1.385.224,3.271,3.271,0,0,1,.9.551,1.787,1.787,0,0,1,.166.166.12.12,0,0,0,.127.034,7.984,7.984,0,0,0,1.863-.712.082.082,0,0,1,.083,0c.024.02.015.054,0,.083a2.729,2.729,0,0,1-.522.946c-.146.185-.517.644-.77.687a6.462,6.462,0,0,0,1.565-.449c.063-.029.058-.039.058,0ZM545.029,222.6s0,0,0,0,0,0-.01,0c.18,0,.122-.015.058-.015A.065.065,0,0,0,545.029,222.6Z" transform="translate(-534.38 -202.95)" fill="#fff"/>
</svg>
