<svg xmlns="http://www.w3.org/2000/svg" width="18.428" height="17.133" viewBox="0 0 18.428 17.133">
  <g id="file-upload" transform="translate(0 0)">
    <path id="Tracé_306" data-name="Tracé 306" d="M15.549,0H2.879A2.883,2.883,0,0,0,0,2.879V12.957a2.883,2.883,0,0,0,2.879,2.879h9.826a.72.72,0,0,0,0-1.44H10.054L8.4,12.25l5.245-6.671,3.531,3.9A.72.72,0,0,0,18.429,9V2.879A2.883,2.883,0,0,0,15.549,0Zm1.44,7.13-2.85-3.15a.72.72,0,0,0-1.1.038L7.492,11.073,5.609,8.63a.72.72,0,0,0-.57-.28h0a.72.72,0,0,0-.57.281L2.884,10.69a.72.72,0,0,0,1.141.878L5.04,10.25l3.2,4.147H2.879a1.441,1.441,0,0,1-1.44-1.44V2.879a1.441,1.441,0,0,1,1.44-1.44h12.67a1.441,1.441,0,0,1,1.44,1.44Zm0,0" fill="#13c2d4"/>
    <path id="Tracé_307" data-name="Tracé 307" d="M82.16,72a2.16,2.16,0,1,0,2.16,2.16A2.162,2.162,0,0,0,82.16,72Zm0,2.879a.72.72,0,1,1,.72-.72A.721.721,0,0,1,82.16,74.879Zm0,0" transform="translate(-77.121 -69.409)" fill="#13c2d4"/>
    <path id="Tracé_308" data-name="Tracé 308" d="M357.156,288.537l-.006-.006a1.794,1.794,0,0,0-2.546,0l-1.39,1.371a.72.72,0,0,0,1.011,1.025l.93-.918v4.04a.72.72,0,1,0,1.44,0v-4.018l.89.92a.72.72,0,1,0,1.034-1Zm0,0" transform="translate(-340.294 -277.634)" fill="#13c2d4"/>
  </g>
</svg>
