<svg xmlns="http://www.w3.org/2000/svg" width="42.801" height="35.659" viewBox="0 0 42.801 35.659">
  <g id="Groupe_596" data-name="Groupe 596" transform="translate(-4.645 -6.595)">
    <path id="Tracé_66" data-name="Tracé 66" d="M212.9,250.41a12.614,12.614,0,1,1-25.227,0c0-6.966,8.781-23.045,12.613-23.045C204.433,227.365,212.9,243.444,212.9,250.41Z" transform="translate(-183.023 -220.77)" fill="#f91212" opacity="0.85"/>
    <g id="Groupe_23" data-name="Groupe 23" transform="translate(20.632 9.778)">
      <g id="Tracé_68" data-name="Tracé 68" transform="translate(-201.931 -230.205)" fill="#046489" stroke-linecap="round" stroke-linejoin="round">
        <path d="M 228.1749114990234 257.6582641601563 L 226.7456359863281 257.6582641601563 L 220.4856414794922 257.6582641601563 L 219.7734069824219 257.6582641601563 L 219.5405883789063 256.9851684570313 L 217.7244567871094 251.7345275878906 L 210.9193878173828 251.7345275878906 L 209.1378631591797 256.9798583984375 L 208.9074401855469 257.6582641601563 L 208.1909790039063 257.6582641601563 L 201.9310302734375 257.6582641601563 L 200.5017547607422 257.6582641601563 L 200.9915924072266 256.3155517578125 L 210.6421356201172 229.8622589111328 L 210.8819274902344 229.2049865722656 L 211.5815734863281 229.2049865722656 L 217.0950775146484 229.2049865722656 L 217.7947235107422 229.2049865722656 L 218.0345153808594 229.8622589111328 L 227.6850738525391 256.3155517578125 L 228.1749114990234 257.6582641601563 Z M 212.5658264160156 245.5246124267578 L 216.0464477539063 245.5246124267578 L 214.3273162841797 240.3236541748047 L 212.5658264160156 245.5246124267578 Z" stroke="none"/>
        <path d="M 211.5815734863281 230.2049865722656 L 201.9310302734375 256.6582641601563 L 208.1909790039063 256.6582641601563 L 210.2029266357422 250.7345275878906 L 218.4366912841797 250.7345275878906 L 220.4856414794922 256.6582641601563 L 226.7456359863281 256.6582641601563 L 217.0950775146484 230.2049865722656 L 211.5815734863281 230.2049865722656 M 217.4302062988281 246.5246124267578 L 211.1713409423828 246.5246124267578 L 214.3388671875 237.1722259521484 L 217.4302062988281 246.5246124267578 M 211.5815734863281 228.2049865722656 L 217.0950775146484 228.2049865722656 C 217.9353179931641 228.2049865722656 218.6859741210938 228.7301940917969 218.9739379882813 229.51953125 L 228.6244964599609 255.9728240966797 C 228.8482360839844 256.5860900878906 228.7585906982422 257.2699279785156 228.3843688964844 257.8048095703125 C 228.0101318359375 258.3396911621094 227.3984222412109 258.6582641601563 226.7456359863281 258.6582641601563 L 220.4856414794922 258.6582641601563 C 219.633056640625 258.6582641601563 218.8742065429688 258.1177978515625 218.5955200195313 257.3120422363281 L 217.01220703125 252.7345275878906 L 211.6358489990234 252.7345275878906 L 210.0847320556641 257.3014526367188 C 209.8092193603516 258.1126403808594 209.0476684570313 258.6582641601563 208.1909790039063 258.6582641601563 L 201.9310302734375 258.6582641601563 C 201.2782440185547 258.6582641601563 200.6665344238281 258.3396911621094 200.2922973632813 257.8048095703125 C 199.9180755615234 257.2699279785156 199.8284301757813 256.5860900878906 200.0521697998047 255.9728240966797 L 209.7026977539063 229.51953125 C 209.9906768798828 228.7301940917969 210.7413177490234 228.2049865722656 211.5815734863281 228.2049865722656 Z M 214.6627044677734 244.5246124267578 L 214.3157806396484 243.4750518798828 L 213.9603118896484 244.5246124267578 L 214.6627044677734 244.5246124267578 Z" stroke="none" fill="#fff"/>
      </g>
    </g>
  </g>
</svg>
