<svg xmlns="http://www.w3.org/2000/svg" width="52.872" height="29.872" viewBox="0 0 52.872 29.872">
  <g id="Groupe_598" data-name="Groupe 598" transform="translate(-4.535 -6.761)">
    <path id="Tracé_78" data-name="Tracé 78" d="M378.814,252.142a1.878,1.878,0,0,0,.911-.235,10.564,10.564,0,0,1-19.355-5.86c0-5.841,7.353-19.308,10.565-19.308,1.728,0,4.339,3.315,6.536,7.372l-5.663,15.514a1.874,1.874,0,0,0,1.766,2.517Z" transform="translate(-355.835 -219.979)" fill="#fa3535"/>
    <path id="Tracé_80" data-name="Tracé 80" d="M387.127,228.22h-4.62l-3.024,8.283-5.052,13.852h5.24l1.681-4.958h6.893l1.719,4.958h5.24Zm-4.958,13.654,2.648-7.823,2.592,7.823Z" transform="translate(-356.691 -220.069)" fill="#046489"/>
    <path id="Tracé_81" data-name="Tracé 81" d="M416.065,241a5.725,5.725,0,0,0-3.005-1.991,5.029,5.029,0,0,0,2.385-2.122,6.113,6.113,0,0,0,.432-5.062,5.716,5.716,0,0,0-1.014-1.812,5.2,5.2,0,0,0-1.587-1.3,4.447,4.447,0,0,0-2.094-.5H398.87v22.134h10.79a11.273,11.273,0,0,0,2.9-.357,7.525,7.525,0,0,0,2.395-1.061,5.183,5.183,0,0,0,1.625-1.756,5.065,5.065,0,0,0,.592-2.5A5.841,5.841,0,0,0,416.065,241Zm-12.077-8.414h5.2a1.882,1.882,0,0,1,1.39.592,2.31,2.31,0,0,1,.573,1.681,2.167,2.167,0,0,1-.657,1.747,2.208,2.208,0,0,1-1.493.563h-5.015Zm7.325,12.781a2.229,2.229,0,0,1-1.653.657h-5.672v-4.836h5.888a1.858,1.858,0,0,1,1.493.723,2.64,2.64,0,0,1,.592,1.747A2.316,2.316,0,0,1,411.313,245.368Z" transform="translate(-359.766 -220.069)" fill="#046489"/>
  </g>
</svg>
