<svg xmlns="http://www.w3.org/2000/svg" width="26.441" height="26.441" viewBox="0 0 26.441 26.441">
  <g id="Groupe_591" data-name="Groupe 591" transform="translate(-1032.105 -4099.4)">
    <g id="Composant_16_1" data-name="Composant 16 – 1" transform="translate(1038.658 4105.763)">
      <g id="Groupe_186" data-name="Groupe 186" transform="translate(-6.553 -6.363)">
        <path id="Tracé_258" data-name="Tracé 258" d="M719.5,216.68h-6.616a3.442,3.442,0,0,0-3.442,3.442v6.616a3.442,3.442,0,0,0,3.442,3.442H719.5a3.442,3.442,0,0,0,3.442-3.442v-6.616A3.442,3.442,0,0,0,719.5,216.68Zm-3.281,10.965a4.108,4.108,0,1,1,4.11-4.105A4.113,4.113,0,0,1,716.217,227.645Zm4.349-7.513a.98.98,0,1,1,.98-.98A.98.98,0,0,1,720.566,220.132Z" transform="translate(-702.887 -210.317)" fill="#fff"/>
        <path id="Tracé_259" data-name="Tracé 259" d="M723.206,227.983a2.633,2.633,0,1,1-2.633-2.633A2.633,2.633,0,0,1,723.206,227.983Z" transform="translate(-707.243 -214.76)" fill="#fff"/>
      </g>
    </g>
    <path id="Tracé_257" data-name="Tracé 257" d="M709.223,203.63a13.22,13.22,0,1,0,13.218,13.223A13.237,13.237,0,0,0,709.223,203.63Zm8.4,16.421a5.014,5.014,0,0,1-5.012,5.012H706a5.011,5.011,0,0,1-5.012-5.012v-6.616A5.011,5.011,0,0,1,706,208.423h6.616a5.014,5.014,0,0,1,5.012,5.012Z" transform="translate(336.105 3895.77)" fill="#fff"/>
  </g>
</svg>
